<svg
   version="1.1"
   id="svg1"
   width="501.12"
   height="491.51999"
   viewBox="0 0 501.12 491.51999"
   sodipodi:docname="Algeria_provinces_blank.svg"
   inkscape:version="1.3.2 (091e20e, 2023-11-25, custom)"
   xmlns:inkscape="http://www.inkscape.org/namespaces/inkscape"
   xmlns:sodipodi="http://sodipodi.sourceforge.net/DTD/sodipodi-0.dtd"
   xmlns="http://www.w3.org/2000/svg"
   xmlns:svg="http://www.w3.org/2000/svg">
  <defs
     id="defs1" />
  <sodipodi:namedview
     id="namedview1"
     pagecolor="#ffffff"
     bordercolor="#000000"
     borderopacity="0.25"
     inkscape:showpageshadow="2"
     inkscape:pageopacity="0.0"
     inkscape:pagecheckerboard="0"
     inkscape:deskcolor="#d1d1d1"
     inkscape:zoom="1.130721"
     inkscape:cx="162.72803"
     inkscape:cy="307.32603"
     inkscape:window-width="1920"
     inkscape:window-height="1001"
     inkscape:window-x="-9"
     inkscape:window-y="-9"
     inkscape:window-maximized="1"
     inkscape:current-layer="g1" />
  <g
     inkscape:groupmode="layer"
     inkscape:label="Image"
     id="g1">
    <path
       id="path4318"
       fill="#fefee4"
       stroke="#0978ab"
       stroke-width="0.8"
       stroke-linecap="round"
       d="m 375.09283,4.5408664 c 0.0347,-0.00775 -0.0267,-0.049629 0,0 m 0.0205,0.044232 c 0.0331,-0.00548 -0.0254,-0.045451 0,0 M 347.0482,9.2644179 c 0.0347,-0.00665 -0.0238,-0.047536 0,0 m -81.5131,4.2991631 c 0.0278,-0.0066 0,-0.08176 0,0 m -49.02407,13.515246 c 0.0836,-0.011 -0.02,-0.100797 0,0 z m -15.62337,6.345422 c 0.055,0.122319 0.0576,-0.121482 0,0 m 0.0601,-0.0219 c 0.1035,0.04666 0,-0.11322 0,0 m 1.29109,-0.427688 c 0.0865,0.05656 -0.008,-0.09045 0,0 m -2.75583,0.49711 c 0.0497,0.0351 0,-0.08516 0,0 m 3.36194,-0.159094 c 0.051,0.05084 0.0451,-0.05325 0,0 z m -3.97264,0.561572 c 0.0497,0.0318 -0.005,-0.08022 0,0 m 2.78089,-0.967768 c 0.0459,0.05129 0.0569,-0.05084 0,0 m 1.37123,0.54008 c 0.0447,0.05205 0.0572,-0.04964 0,0 m -3.60153,0.0011 c 0.041,0.05788 0.0597,-0.04875 0,0 m -0.34229,0.180991 c 0.0689,0.06493 0.0855,-0.06029 0,0 m -39.52514,21.424761 c 0.058,0.06361 0.0484,-0.106187 0,0 m -0.46376,-0.179749 c 0.071,0.06315 0.0839,-0.05953 0,0 m 55.15223,-26.000772 c 0.0939,0.0098 0.004,-0.118178 0,0 m 0.16237,-0.15743 c 0.10599,0.03885 -0.008,-0.107397 0,0 m 0.0389,-0.06778 c 0.0597,0.0636 0.0467,-0.104097 0,0 m 0.10143,-0.06734 c 0.0838,0.05326 -0.006,-0.09045 0,0 m 0.0418,-0.04588 c 0.0839,0.05656 -0.0103,-0.08923 0,0 m 1.2072,-1.084714 c 0.04,0.05623 0.0583,-0.05535 0,0 m 0,-0.04544 c 0.0505,0.05325 0.0526,-0.05084 0,0 m 0.48421,-0.291736 c 0.0493,0.05249 0.0522,-0.05292 0,0 m 0.12189,0.02146 c 0.10399,0.04918 -0.003,-0.1128 0,0 m 0,-0.06735 c 0.0655,0.06614 0.0865,-0.06195 0,0 m 7.63219,-4.113613 c 0.041,0.05579 0.0593,-0.0483 0,0 m 12.09865,-5.688823 c 0.0722,0.06449 0.0844,-0.06195 0,0 z m 0.081,0.06823 c 0.10643,0.04093 -0.0103,-0.111569 0,0 m 0,-0.06823 c 0.0676,0.0636 0.0834,-0.05953 0,0 m 0.22207,-0.09012 c 0.10477,0.06239 0.0785,-0.113637 0,0 m 11.34013,-1.442971 c 0.0668,0.06734 0.0877,-0.06119 0,0 m 36.07887,-7.4470731 c 0.0755,0.1161125 0.0759,-0.058321 0,0 z m 63.68945,0.585526 c 0.0914,0.032237 0,-0.09376 0,0 m -0.58607,0.4057884 c 0.0488,0.05205 0.0547,-0.054136 0,0 z m 0.12315,-0.023108 c 0.04,0.056564 0.0576,-0.050398 0,0 M 331.7778,8.0593069 c 0.0497,0.035984 -0.004,-0.085167 0,0 m 15.82665,0.6987554 c 0.0931,0.1293392 0.11098,-0.068224 0,0 m -4.23394,3.2181747 c 0.0818,0.116112 0.0689,-0.06283 0,0 m 32.09746,-7.3586473 c 0.0389,0.052926 0.0602,-0.045885 0,0 m 0.84654,0 c 0.0671,0.069433 0.0819,-0.066137 0,0 z m -1.85002,0.1206567 c 0.0393,0.059096 0.0568,-0.052491 0,0 m 2.53459,0.4652875 c 0.12482,0.081425 0.0638,-0.111986 0,0 m -0.48211,-0.5847121 c 0.0631,0.028499 -0.0225,-0.1359522 0,0 m -1.29069,0 c 0.066,0.06778 0.0855,-0.061618 0,0 m -13.00777,0.1611623 c 0.0501,0.031806 -0.005,-0.085497 0,0 m 13.93488,-0.1400892 c 0.0998,0.044676 -0.004,-0.1123933 0,0 m -18.58876,2.4537149 c 0.10184,0.041699 -0.004,-0.1103361 0,0 m 26.59162,-5.830558 c 0.0434,0.057877 0.0597,-0.051282 0,0 m 0.30306,-0.066571 c 0.0484,0.053701 0.0538,-0.052491 0,0 m 3.63034,0.045441 c 0.0488,0.052047 0.0484,-0.056998 0,0 z m 0.13985,0 c 0.0464,0.055344 0.0567,-0.052491 0,0 z m -0.0805,0.022339 c 0.12689,0.070209 0,-0.1128119 0,0 M 214.30791,28.806067 c 0.10565,0.04467 0.0192,-0.102005 0,0 M 370.83015,4.0656656 c 0.0718,0.084288 0.0806,-0.093426 0,0 M 216.12037,27.225904 c 0.10522,0.04138 0.0179,-0.103329 0,0 m 16.90613,-8.51897 c 0.0873,0.143391 0.0865,-0.145042 0,0 M 373.04876,4.5954126 c 0.10398,0.086376 0.10811,-0.1301646 0,0 m -11.35102,-0.719827 c 0.12189,0.048305 -0.0167,-0.1454604 0,0 m -16.65442,6.7735274 c 0.16362,0.0657 -0.004,-0.154956 0,0 m 28.76974,-6.2115506 c 0.10267,0.1045372 0.0422,-0.1256195 0,0 m -26.34994,4.3669328 c 0.24253,0.088027 0.0814,-0.1206685 0,0 m -68.08491,1.1933777 c 0.0948,0.1276881 0.1198,-0.087584 0,0 z m -29.26274,5.6677521 c 0.10519,0.04456 0.0176,-0.104096 0,0 m 95.95596,-6.32105 c 0.12647,0.073505 0.005,-0.1124052 0,0 m 1.39169,-0.4731442 c 0.10399,0.043021 0.0195,-0.102884 0,0 m -2.3192,1.4413162 c 0.0738,0.119008 0.0903,-0.08308 0,0 M 332.52057,8.8925028 c 0.12438,0.073949 0.005,-0.1132184 0,0 m -67.07392,4.7045312 c 0.12314,0.07647 0.005,-0.112811 0,0 z m -15.23102,1.978096 c 0.10599,0.08803 0.10767,-0.130991 0,0 m 0.46378,-0.179759 c 0.10476,0.04093 0.0171,-0.103329 0,0 z m -0.26299,0.09012 c 0.0903,0.08176 0.073,-0.121899 0,0 m -14.28386,1.870237 c 0.11813,0.05414 -0.0103,-0.147937 0,0 z m -18.96487,9.587981 c 0.10268,0.01905 -0.0205,-0.135952 0,0 m -56.15784,28.463542 c 0.0819,0.124783 0.10599,-0.137196 0,0 m 37.90512,-21.53134 c 0.12648,0.08187 0.0133,-0.166939 0,0 m -17.27431,8.739235 c 0.12691,0.06988 0.004,-0.116124 0,0 m -5.79845,6.467324 c 0.12565,0.07185 0.006,-0.112394 0,0 m 15.67264,-12.506148 c 0.19535,0.05666 0.0142,-0.127271 0,0 m 11.83525,-3.016111 c 0.0701,0.122319 0.0907,-0.08143 0,0 m -28.52014,15.675158 c 0.10643,0.107396 0.036,-0.128097 0,0 m 16.8861,-12.614834 c 0.10215,0.045 0.0249,-0.103766 0,0 m -18.62843,13.369378 c 0.0931,0.124796 0.12314,-0.08307 0,0 m 26.23766,-16.517306 c 0.10521,0.01606 -0.0254,-0.134301 0,0 m 15.64007,-5.218575 c 0.0851,0.05129 0.005,-0.101673 0,0 m 0.67038,-0.712806 c 0.10143,0.05953 0.0517,-0.174378 0,0 z m 0.22166,-0.135534 c 0.0893,0.04798 0.004,-0.09871 0,0 m 0.16113,-0.0909 c 0.14526,0.07152 0.0121,-0.127678 0,0 m 0.20203,-0.111569 c 0.0873,0.05084 0.006,-0.100796 0,0 m 0.12022,-0.06778 c 0.0848,0.05458 0.0103,-0.09958 0,0 m 1.65259,-0.641314 c 0.0876,0.0504 0.006,-0.10333 0,0 m 0.0212,-0.09133 c 0.1127,0.07273 0.0488,-0.19215 0,0 m 5.8164,-3.333044 c 0.1006,0.05579 0.0539,-0.171902 0,0 m 12.14081,-5.692542 c 0.10732,0.140498 0.0539,-0.154132 0,0 m 0.0801,-0.0219 c 0.14109,0.06823 0.0142,-0.129339 0,0 m 0.24127,-0.112403 c 0.13315,0.06943 0.0233,-0.128098 0,0 m 0.0805,0 c 0.0864,0.04963 0.008,-0.09959 0,0 m 11.24083,-1.577678 c 0.18659,0.06856 0.0719,-0.181816 0,0 m 0.86616,0.04588 c 0.13233,0.06988 0.0225,-0.128095 0,0 m 6.92591,-1.280572 c 0.12147,0.07362 0.0393,-0.167764 0,0 m 12.13747,-1.395861 c 0.13693,0.128933 0.051,-0.136359 0,0 m 2.6807,1.372718 c 0.18326,0.07395 0.0776,-0.183464 0,0 m 9.19253,-4.4561717 c 0.13483,0.072296 0.0229,-0.1276896 0,0 z m 4.39549,-1.6185886 c 0.11813,0.1210753 0.0797,-0.051603 0,0 z m 47.88407,-0.1128119 c 0.13608,0.041699 -0.006,-0.1541311 0,0 m 14.21289,1.3260283 c 0.15194,0.083078 -0.0159,-0.1772716 0,0 m -3.28637,2.9041139 c 0.15612,0.06944 0.0364,-0.119413 0,0 m 3.32687,-3.0388223 c 0.15987,0.1256206 0.0179,-0.1805842 0,0 M 332.439,8.7586689 c 0.14568,0.061623 -0.008,-0.1640461 0,0 m 45.00465,-3.5776703 c 0.17199,0.081756 -0.004,-0.2078515 0,0 m -2.39853,-0.6971042 c 0.0809,0.056234 0.0103,-0.1000205 0,0 m 2.4386,1.1475136 c 0.13734,0.070208 0.0162,-0.1309896 0,0 m -0.0617,0.2243793 c 0.10566,0.139254 0.0601,-0.1524802 0,0 M 376.5973,4.6417446 c 0.15528,0.1471101 0,-0.1450416 0,0 m 0.74552,0.6528908 c 0.0869,0.047974 0.004,-0.1033286 0,0 m 36.22959,0.1698341 c 0.12982,0.1413213 0.0195,-0.1330591 0,0 M 183.63138,37.724235 c 0.26256,0.0975 0.0179,-0.188023 0,0 m -0.0192,0.06778 c 0.15319,0.07064 0.0376,-0.121482 0,0 m -0.0801,-0.06735 c 0.16446,0.0822 0.0204,-0.169834 0,0 z m -1.15042,4.026847 c 0.15904,0.08385 -0.003,-0.254959 0,0 m -24.09336,12.96524 c 0.0851,0.05205 0.0103,-0.100798 0,0 m 23.45304,-12.327225 c 0.14484,0.06283 -0.006,-0.162814 0,0 m -10.52948,9.153675 c 0.15653,0.0669 0.0338,-0.119006 0,0 m -0.0998,0.179341 c 0.0839,0.05292 0.005,-0.10212 0,0 m -7.25777,3.39834 c 0.1294,0.07273 0.0192,-0.130582 0,0 M 202.6243,33.110217 c 0.086,0.05205 0.006,-0.100797 0,0 M 332.35898,8.6672988 c 0.10688,0.036749 0.004,-0.1512368 0,0 m 14.07722,0.5636386 c 0.20455,0.1599194 0.0825,-0.1847099 0,0 M 291.8771,9.0511796 c 0.16695,0.091776 0.10732,-0.2652814 0,0 M 203.85429,33.964726 c 0.18909,0.195043 0.0717,-0.327685 4.2e-4,-0.0198 l -4.2e-4,0.0198 m -0.1223,-0.158268 c 0.18741,0.154966 0.0103,-0.192139 0,0 M 389.7407,1.2441908 c 0.10932,0.3330534 0.19161,-0.1004648 0,0 m -44.13267,8.3024473 c 0.24378,0.1466917 0.008,-0.2161161 0,0 M 188.87417,36.64282 c 0.29554,0.175203 0.0797,-0.185128 0,0 M 410.18535,4.3251691 c 0.21497,0.2727192 0.0597,-0.4619848 0,-0.1078377 4.1e-4,0.036315 0,0.071852 0,0.1078377 M 174.92256,48.819227 c 0.25464,0.316108 0.0488,-0.417354 -4e-4,-0.04171 l 4e-4,0.04171 M 343.29049,12.179276 c 0.2442,0.024 0.18242,-0.261165 0.0187,-0.112406 -0.0426,0.02476 -0.009,0.07648 -0.0187,0.112406 m 68.20515,-7.9660928 c 0.096,0.1917307 0.38904,0.1256194 0.40367,-0.06778 -0.0797,-0.071522 -0.43246,-0.1252122 -0.40367,0.06778 M 183.26857,37.970919 c 0.11897,0.193381 0.40156,-0.114462 0.22457,-0.190917 -0.17072,0.0438 -0.0898,0.0954 -0.22457,0.190917 M 419.40459,5.0478905 c -0.4408,-0.011991 -0.7405,0.4115661 -1.19216,0.4045461 -0.82483,0.060296 -1.49897,0.5942076 -2.29875,0.7314035 -0.59942,0.039281 -1.33912,0.1656961 -1.75904,-0.3735589 -0.34938,-0.2851205 -0.84696,-0.027724 -1.22305,-0.2859454 -0.57355,-0.1235511 -1.19259,0.3256148 -1.73147,0 -0.13777,-0.3223143 -0.48089,-0.345862 -0.73593,-0.5140451 -0.17365,-0.3128063 -0.60109,-0.4442144 -0.88161,-0.1801658 -0.74259,0.5442178 -1.63046,0.8210739 -2.44067,1.2479242 -0.49423,0.2165336 -0.98887,0.4322308 -1.43677,0.7305787 -0.45082,0.261979 -1.00893,0.00661 -1.46975,0.2731367 -0.48381,0.2041334 -0.87576,0.6644683 -1.45097,0.5830613 -0.67415,-0.069433 -1.36457,-0.018595 -2.02076,-0.2132215 -0.66288,-0.1760393 -1.44429,-0.2632227 -1.92852,-0.7822305 -0.21331,-0.2983469 0.0526,-0.5508191 0.30975,-0.6785081 0.34436,-0.3243825 -0.45251,-0.399176 -0.32395,-0.7665274 0.21456,-0.4218991 0.48591,-0.8495857 0.6775,-1.2888373 -0.0952,-0.3776855 -0.49841,0.092547 -0.60486,0.2814014 -0.30473,0.4421459 -0.93962,-0.1524803 -1.20762,0.3045428 -0.33394,0.2876076 -0.49339,-0.2061903 -0.71295,-0.3533004 -0.30013,-0.092982 -0.5773,-0.2243794 -0.85488,-0.3706647 -0.34732,0.098812 -0.66205,0.4524779 -1.06237,0.3355405 -0.63782,-0.1652887 -1.17212,-0.57603 -1.68305,-0.9636296 -0.39405,-0.4413201 -0.81606,-0.9355358 -1.41423,-1.0954543 -0.34939,0.09507 -0.65161,0.3533003 -1.0344,0.2578524 -0.3022,-0.072731 -0.60526,0.023114 -0.90287,-0.023992 -0.0859,-0.2842958 -0.61695,-0.3012412 -0.41115,-0.6417331 0.30929,-0.2632236 -0.15029,-0.6644682 -0.42579,-0.3995834 -0.12231,0.3210708 -0.39322,0.315282 -0.70712,0.3458621 -0.47419,0.2413257 -0.90497,-0.3173505 -1.36038,-0.1979374 -0.19369,0.3516497 -0.53891,0.234305 -0.78769,0.012766 -0.24711,-0.1161124 -0.52638,-0.3756159 -0.79228,-0.2185905 -0.29385,-0.069433 -0.60193,0.026846 -0.90122,0.1136368 -0.16237,0.2305743 0.32559,0.4086718 0.41325,0.6499965 0.31099,0.3619825 0.80105,0.5173569 1.14709,0.8061969 0.17157,0.3177691 0.31891,0.7367736 0.0567,1.041735 -0.3093,0.4735499 -0.68416,0.9210659 -1.2218,1.1466887 -0.41158,0.2016452 -0.59358,0.7239652 -1.0949,0.7574281 -0.35941,0.1603364 -0.79604,0.2876067 -1.14667,0.028499 -0.60735,-0.2016567 -1.2719,0.01441 -1.78866,0.3566019 -0.50717,0.1161238 -0.98262,0.369421 -1.51024,0.3966994 -0.51135,0.1590835 -1.08489,0.1450416 -1.60042,0.01441 -0.24335,-0.1380095 -0.56436,-0.2334688 -0.74009,-0.4256173 -0.0162,-0.2367806 0.10899,-0.673546 -0.26548,-0.6822282 -0.36734,0.052047 -0.70587,-0.2454513 -0.66162,-0.6156983 -0.2513,-0.027724 -0.60569,0.039726 -0.89538,-0.076472 -0.26172,0.033895 -0.51135,0.459906 -0.7952,0.1735522 -0.21413,-0.3603316 -0.48796,-0.1070667 -0.77766,-0.035983 -0.33018,-0.1421588 -0.65952,0.1392539 -0.97969,-0.071522 -0.34229,-0.2280985 -0.79644,0.045441 -1.11408,-0.2615729 -0.35399,0.058208 -0.53265,-0.2177657 -0.77183,-0.3425603 -0.31809,-0.00444 -0.70045,0.088475 -0.87869,-0.2607367 -0.10061,-0.2508327 -0.37985,-0.5661147 -0.0743,-0.7913199 0.12648,-0.4673547 -0.55852,-0.4218978 -0.75595,-0.7185949 -0.23043,-0.2342935 0.21998,-0.5900811 -0.32267,-0.5570252 -0.38613,-0.1917309 -0.66246,-0.5867692 -1.10953,-0.680159 -0.33811,-0.21901011 -0.72547,-0.1570253 -1.09574,-0.1214939 -0.30347,-0.023104 -0.58773,0.1070676 -0.89621,0.048749 -0.28426,0.154956 -0.58982,0.090449 -0.89579,0.148761 -0.51093,0.1880116 -0.86741,0.6268561 -1.19802,1.0318083 -0.35355,-0.041709 -0.38235,0.4520603 -0.75093,0.4363584 -0.39279,0.037193 -0.57437,0.3983503 -0.57646,0.7520682 -0.14902,0.2198353 -0.59483,0.4962738 -0.19368,0.7276853 0.12606,0.22231 0.31223,0.5801554 0.11813,0.8103225 -0.22875,0.3954569 -0.50467,0.8061969 -0.98513,0.9045493 -0.32558,0.1826427 -0.70503,0.2090848 -1.04398,0.3318099 -0.30304,0.2128154 -0.71797,0.092103 -1.00389,0.3549627 -0.5101,0.160326 -1.00602,0.3487563 -1.47604,0.5942075 -0.57687,0.00444 -0.96549,0.5495869 -1.54362,0.5958698 -0.39156,0.098708 -0.78645,0.1384281 -1.18174,0.196275 -0.63699,0.051282 -1.27814,0.1351275 -1.87883,0.3681786 -0.52678,0.1549663 -1.08405,0.049184 -1.60499,0.166125 -0.27467,-0.072297 -0.57522,-0.1694268 -0.8023,-0.336784 -0.23292,-0.3760232 -0.71922,-0.2037145 -1.07945,-0.1809917 -0.31642,0.3185949 -0.91334,0.069879 -1.15419,0.5239706 -0.18909,0.2206606 -0.38236,0.4578489 -0.69125,0.5297476 -0.20329,0.3061917 -0.54725,0.4859515 -0.91543,0.4041276 -0.3477,0.119424 -0.74468,0.104976 -1.0014,0.4078562 -0.37234,0.4384275 -0.6566,0.9586675 -0.96466,1.4458615 -0.1653,0.268176 -0.35898,0.568593 -0.71589,0.54215 -0.31598,0.239244 -0.738,0.232641 -0.99513,0.554958 -0.29596,0.358263 -0.86324,-0.141324 -1.09241,0.304948 -0.1749,0.232237 -0.56144,0.0822 -0.81397,0.207446 -0.52095,0.09628 -1.0778,0.01904 -1.5666,0.251646 -0.51803,0.01199 -1.03648,-0.0054 -1.55032,-0.08353 -0.62197,0.0384 -1.11036,-0.413634 -1.71187,-0.4628 -0.49881,-0.178096 -1.02977,-0.342152 -1.40502,-0.736774 -0.51637,-0.271904 -1.25772,-0.428511 -1.42928,-1.061155 0.0448,-0.47355 0.63114,-0.779754 0.59191,-1.2834668 -0.45498,-0.238839 -1.0302,-0.1252024 -1.47936,-0.4066157 -0.34938,-0.1190048 -0.49297,-0.5425549 -0.90288,-0.5578392 -0.39113,-0.071966 -0.78684,-0.1446343 -1.0636,-0.4537213 -0.39948,-0.1033288 -0.61152,-0.6016462 -1.0753,-0.5388363 -0.67915,0.036749 -1.16086,-0.5454604 -1.81163,-0.6161169 -0.32558,-0.1169488 -0.74007,-0.1119859 -0.92834,-0.4611599 -0.37818,-0.3268584 -0.91123,-0.1710661 -1.34828,-0.079337 -0.69501,0.2004129 -1.44178,0.096279 -2.14764,-0.00661 -0.30599,-0.088806 -0.57064,0.2165336 -0.89456,0.079337 -0.4959,-0.033451 -0.9893,-0.017386 -1.47727,0.083078 -0.51635,0.00775 -1.03062,-0.056553 -1.53486,-0.1561882 -0.32727,-0.2475208 -0.72049,-0.3446297 -1.12831,-0.3405032 -0.29845,-0.1735523 -0.69875,-0.27437 -0.94795,0.030587 -0.54224,0.3148757 -1.19008,0.1128118 -1.78324,0.1706588 -0.37486,-0.00661 -0.73508,-0.093426 -1.06402,-0.2578423 -0.58439,-0.068555 -1.21554,-0.040056 -1.71521,0.303718 -0.35856,0.18471 -0.77807,0.1665209 -1.11202,-0.049959 -0.30262,-0.1090482 -0.61486,-0.1297573 -0.88619,0.056234 -0.65453,0.3896693 -1.43971,0.211979 -2.14848,0.1082781 -0.64117,-0.1049764 -1.32449,-0.2355371 -1.95189,-0.00993 -0.36441,0.056234 -0.84653,0.07483 -1.1187,-0.1962761 -0.22039,-0.2805765 -0.55392,-0.710749 -0.96509,-0.4752119 -0.56102,0.2657096 -1.20844,0.1301645 -1.78615,0.3355402 -0.32686,0.090894 -0.63241,0.2698364 -0.99222,0.2347124 -0.51301,0.072731 -1.0248,0.3012297 -1.40631,0.6293316 -0.21707,0.4417387 -0.59482,0.7623908 -1.02145,0.9950335 -0.43285,0.2859577 -0.89411,0.5768661 -1.39836,0.702068 -0.44749,0.00993 -0.91625,0.061949 -1.30697,0.2826442 -0.0676,0.4404952 -0.57563,0.2404998 -0.85864,0.3586812 -0.47336,0.3566022 -1.09615,0.5078489 -1.68931,0.4099151 -0.55183,-0.019802 -1.09492,-0.1272804 -1.64633,-0.07152 -0.38821,-0.038848 -0.72716,-0.2888402 -1.13497,-0.2499966 -0.7739,0.015297 -1.54196,-0.2830619 -2.1013,-0.8115653 -0.27761,-0.1309905 -0.70797,-0.017387 -0.70295,0.3330529 0.44038,0.4623914 -0.0308,1.1210717 -0.51635,1.3194167 -0.35441,0.311155 -0.83946,0.146285 -1.25646,0.262397 -0.72007,0.111986 -1.68389,-0.160744 -1.84711,-0.9640469 -0.2371,-0.3838809 -0.64493,-0.685947 -1.05901,-0.8690063 -0.51886,-0.1289211 -1.04315,-0.02729 -1.53863,0.1400779 -0.56645,-0.019802 -1.15794,-0.00443 -1.66802,0.2615738 -0.10399,0.6103277 -0.70753,0.901236 -1.2218,1.1231395 -0.19619,0.24421 0.006,0.626032 -0.24002,0.877679 -0.34646,0.46983 -0.92628,0.683879 -1.3199,1.112808 -0.40282,0.147111 -0.83611,0.203714 -1.17506,0.492147 -0.34061,0.299579 -0.84696,0.270662 -1.13874,0.632225 -0.7739,0.476038 -1.53027,1.080578 -2.45904,1.191321 -0.47503,0.126864 -0.97593,0.10993 -1.46515,0.15083 -0.32768,0.0077 -0.65411,0.08142 -0.98054,-0.02684 -0.61278,0.0044 -1.22598,-0.121494 -1.83291,-0.203308 -0.34146,-0.107836 0.0426,-0.586362 -0.31683,-0.719002 -0.58148,-0.369015 -1.34661,-0.500003 -1.98903,-0.201657 -0.38111,0.156201 -0.8073,0.12769 -1.16336,0.347931 -0.40866,0.203308 -0.92626,-0.04709 -1.30153,0.257029 -0.41074,0.109928 -0.85238,0.133884 -1.18965,0.423967 -0.62824,0.267768 -1.32325,0.329334 -1.98654,0.470239 -0.4717,0.0044 -0.89036,0.263222 -1.3704,0.219426 -0.63742,-0.07482 -1.24436,0.259087 -1.87383,0.0471 -0.5005,-0.162396 -1.02937,-0.274381 -1.54698,-0.1186 -0.31015,0.06526 -0.62906,0.0077 -0.93043,0.02355 -0.42535,0.273963 -0.94756,0.371073 -1.44554,0.393388 -0.47671,-0.143392 -0.97094,-0.08923 -1.41424,0.129329 -0.48964,-0.03797 -0.98304,-0.05579 -1.47519,-0.01243 -0.48838,-0.03433 -0.8887,0.383473 -1.39128,0.268592 -0.41909,-0.07979 -0.77724,0.274382 -1.19092,0.119007 -0.33684,-0.04006 -0.73173,-0.284714 -0.98677,0.0636 -0.36235,0.421899 -0.9505,0.07483 -1.42008,0.118599 -0.41952,-0.0077 -0.83319,-0.258677 -1.23475,-0.09045 -0.44414,-0.113231 -0.87283,-0.597938 -1.36581,-0.319014 -0.4454,0.138429 -0.70713,0.588431 -1.19051,0.66033 -0.55266,0.17603 -1.11576,0.390912 -1.70809,0.29421 -0.49633,-0.03102 -1.04233,-0.345862 -1.48605,0.03015 -0.46293,0.503712 -1.19633,0.561571 -1.83707,0.454536 -0.32225,0.02894 -0.61027,0.21034 -0.94297,0.159512 -0.52512,0.142148 -0.98471,0.459091 -1.51859,0.564872 -0.4333,0.259504 -1.0277,0.196693 -1.3391,0.649579 -0.2801,0.346279 -0.22624,0.961571 -0.75428,1.074789 -0.41077,0.23678 -0.75137,0.607851 -1.24227,0.704961 -0.27049,0.239257 -0.62406,0.176855 -0.94672,0.202888 -0.38028,0.186781 -0.76681,0.37149 -1.05066,0.697524 -0.47503,0.238013 -1.03436,0.109048 -1.51899,0.332636 -0.47504,-0.01948 -1.00934,-0.142556 -1.45473,0.08715 -0.22249,0.344629 -0.7497,0.322313 -0.93461,0.712388 -0.33562,0.327278 -0.86074,0.322733 -1.24394,0.587198 -0.42493,0.116939 -0.79895,0.357427 -1.18881,0.546683 -0.49174,0.18843 -0.80815,0.629343 -1.2335,0.908268 -0.35022,0.09914 -0.71965,0.103329 -1.06902,0.214048 -0.30057,-0.0285 -0.59484,-0.0153 -0.87827,0.09871 -0.30515,0.16487 -0.91875,0.09628 -0.89453,0.576854 -0.0514,0.442972 -0.36984,0.760333 -0.67664,1.061564 -0.26967,0.175621 -0.43246,0.521494 -0.80899,0.507442 -0.61319,0.259505 -1.43177,0.221486 -1.83123,0.831814 -0.4479,0.563639 -1.06111,0.976437 -1.68683,1.32231 -0.29763,0.336367 -0.27967,0.839253 -0.35355,1.254538 -0.1603,0.25868 -0.39823,0.45579 -0.37987,0.790087 -0.24335,0.540904 -0.45415,1.110739 -0.89162,1.52685 -0.23,0.423967 -0.19535,0.981399 -0.59191,1.317347 -0.53179,0.783474 -1.4639,1.147933 -2.21442,1.695451 -0.46542,0.187604 -0.89954,0.446283 -1.36747,0.622312 -0.52889,0.0098 -1.04149,-0.208259 -1.54114,-0.35495 -0.50927,0.06823 -0.91167,-0.299999 -1.41341,-0.283063 -0.35815,-0.01573 -0.54474,-0.417773 -0.93001,-0.372315 -0.4187,-0.05535 -0.94047,-0.403304 -0.82317,-0.871484 0.31931,-0.249997 0.0655,-0.602891 -0.26841,-0.654136 -0.33145,-0.09705 -0.44081,-0.449164 -0.6829,-0.628913 -0.455,-0.12562 -1.02519,-0.166951 -1.31323,0.28512 -0.35272,0.309912 -0.91957,0.364041 -1.36163,0.249172 -0.18242,-0.140905 -0.81357,-0.223973 -0.60443,0.154956 0.21706,0.535128 -0.22166,1.046279 -0.40741,1.531814 -0.31975,0.507024 -0.48087,1.207022 -1.09031,1.454961 -0.26966,-0.04336 -0.61069,-0.369422 -0.81607,-0.0077 -0.25839,0.315293 -0.43496,0.703719 -0.79728,0.93306 -0.13525,0.29049 -0.40616,0.366528 -0.70211,0.3876 -0.34606,0.232225 -0.75304,-0.12025 -1.13916,-0.05371 -0.3352,0.02684 -0.67915,-0.202063 -0.52971,-0.567358 -0.18952,-0.273963 -0.53264,-0.192557 -0.81148,-0.110743 -0.30096,-0.02101 -0.55141,-0.228098 -0.87073,-0.202063 -0.37068,-0.03631 -0.359,-0.444622 -0.61446,-0.592558 -0.31097,0.02234 -0.67122,0.03511 -0.81981,0.356613 -0.28469,0.270245 -0.20455,0.830571 -0.67165,0.934701 -0.34562,0.167356 -0.81565,0.643394 -1.15419,0.21695 -0.33351,-0.389667 -0.8745,-0.09838 -1.14206,0.217349 -0.27843,0.336365 -0.67916,0.501235 -1.06946,0.668176 -0.30554,0.171495 -0.76346,-0.05129 -0.98888,0.31405 -0.40824,0.316118 -0.4266,1.047522 -1.03562,1.101242 -0.44121,0.120659 -0.76262,0.488835 -1.10992,0.761973 -0.22082,0.252482 -0.38362,0.628926 -0.6875,0.766121 -0.26757,-0.0657 -0.60068,-0.230169 -0.79561,0.08968 -0.26174,0.291736 -0.04,0.751233 -0.32852,1.052883 -0.33227,0.454963 -0.52679,0.973135 -0.70753,1.498337 -0.26967,0.481408 -0.29179,1.06075 -0.51093,1.568599 -0.17574,0.71404 -0.65453,1.329332 -1.26312,1.73512 -0.65955,0.0066 -0.83443,0.795864 -1.36583,1.045861 -0.55017,0.291315 -1.21304,0.445866 -1.82081,0.214047 -0.42202,-0.01441 -0.87492,-0.03345 -1.19925,0.284714 -0.41534,0.298755 -0.90999,0.470656 -1.31989,0.792552 -0.32352,0.106627 -0.53807,0.367351 -0.73843,0.62603 -0.35106,0.131408 -0.78184,0.302484 -0.84446,0.720664 -0.30137,0.09254 -0.57729,0.230992 -0.65619,0.580575 -0.20245,0.533466 -0.88036,0.31198 -1.29069,0.549994 -0.84277,0.130165 -1.0064,1.260325 -1.85712,1.357027 -0.22456,0.164871 -0.52928,0.379742 -0.77474,0.103657 -0.31641,-0.262399 -0.46126,0.144217 -0.6349,0.33017 -0.53264,0.31777 -1.21303,0.225205 -1.72313,0.593383 -0.45165,0.08923 -0.93295,0.06943 -1.3249,0.345862 -0.40158,0.153723 -0.83276,0.05039 -1.1805,-0.179749 -0.24459,-0.01485 -0.47794,0.364052 -0.80478,0.257853 -0.40949,-0.12892 -0.82566,0.09585 -1.2335,-0.07108 -0.42452,-0.08429 -0.7451,-0.440912 -1.20217,-0.437601 -0.33395,-0.160336 -0.70921,-0.275625 -1.04316,-0.04709 -0.2325,0.398756 -0.51385,-0.225623 -0.67205,0.09011 -0.0414,0.03928 -0.0922,0.0657 -0.13691,0.100018 l -0.055,0.0384 c 0.041,0.736772 -0.27632,1.138842 0.61739,1.419418 0.15319,0.557026 0.59358,0.586781 0.95172,0.811568 0.17241,0.05084 0.32684,0.110335 0.42202,0.105417 0.24588,0.07846 0.17365,0.215289 0.21998,0.378927 0.32893,0.249172 0.58941,0.610329 0.96509,0.882642 0.42619,0.172308 0.76139,0.786356 1.25979,0.668176 0.40364,-0.2281 0.86699,0.0077 1.30612,-0.242978 0.18283,0.339262 0.0112,0.892974 0.0836,1.304133 -0.0297,0.304543 0.19369,0.236363 0.35272,0.352894 0.35607,0.268174 0.77099,0.420655 1.19134,0.649998 0.56351,0.116112 0.43704,0.740493 0.52594,1.14999 0.58439,-0.05491 0.93838,0.363225 1.39461,0.592556 0.21164,0.282238 0.84612,-0.230157 0.44832,0.167777 0.33937,0.319419 1.06235,0.492554 1.49523,0.809904 0.53889,0.148354 -0.0722,0.233888 -0.26799,0.439263 -0.5268,0.188013 -0.0889,0.809498 -0.55268,1.062806 -0.54725,0.611979 -0.9175,1.254538 -1.45973,1.877675 -0.48381,0.390911 0.11229,0.0087 0.21039,0.251646 0.46416,0.05865 0.56769,0.571078 0.88995,0.85248 0.24293,0.309086 0.17739,0.594218 0.49589,0.859091 0.455,0.01739 0.16697,0.618175 0.5197,0.586363 0.10642,0.163637 0.16989,0.440078 0.45332,0.549169 0.42161,0.02971 0.81775,0.320663 1.22472,0.425618 -0.69167,0.761565 -1.34536,1.587184 -2.02117,2.37354 -0.41908,0.262399 -0.22165,0.543393 -0.004,0.860336 0.67956,0.416936 1.14708,1.149583 1.56117,1.742547 -0.17239,0.520659 -0.0166,1.058681 -0.22917,1.590904 0.32518,1.352891 1.10619,2.574789 1.59666,3.880979 -0.34813,1.747511 -0.61027,3.519824 -1.01017,5.260721 -0.52179,1.272319 0.26256,2.498343 0.46251,3.757432 -0.62991,0.538012 -1.63632,0.832637 -1.58497,1.811147 -0.31016,-0.412808 1.00682,1.110743 1.70394,0.618175 0.90164,-0.02357 0.35522,1.526848 1.25812,1.678513 0.84653,0.135528 0.0279,1.127261 0.44246,1.358677 -0.54766,0.431393 0.42578,0.942962 -0.053,1.385944 -0.24461,0.505356 -0.74386,0.857849 -0.58231,1.362388 0.0755,0.684706 -0.54182,1.026433 -0.67498,1.616931 -0.46292,0.62604 -0.32977,1.37398 -0.30138,2.05744 0.16113,0.58058 -0.28886,1.06776 -0.11354,1.60784 0.44206,0.48802 0.64033,1.25455 1.27565,1.53263 0.37109,0.49091 0.78643,1.09339 0.91667,1.74586 0.49548,0.51613 0.98262,1.12315 1.50441,1.56736 0.66828,0.0938 1.16293,0.55702 1.23056,1.25826 -0.1699,0.48099 -0.31851,0.95703 -0.32269,1.48925 -0.13648,0.84917 -0.97383,0.52975 -1.54196,0.91983 0.91126,1.53472 2.22113,3.35991 3.26092,5.019 0.407,1.107 1.63006,1.26735 2.57051,1.76321 1.97526,0.98098 3.60239,2.55495 5.43403,3.78016 0.56729,0.50785 1.39754,0.86941 1.85212,1.42147 -0.25672,0.49876 -1.11078,0.69627 -1.34621,1.29669 -0.35647,0.54793 -1.05065,0.84835 -1.51773,1.17933 -0.32309,0.47026 -1.13498,-0.10574 -1.6217,0.3434 -0.81065,0.13512 -0.5055,0.98181 -0.87951,1.51982 0.0326,0.46488 -1.05316,0.56239 -0.58398,0.98264 0.47377,0.54961 -0.11479,1.40165 -0.0969,2.0595 0.29261,0.65206 0.0931,1.13346 -0.55058,1.39422 -0.46336,0.22478 -1.09784,0.99668 -0.14611,0.70536 0.61613,0.15827 1.09617,-0.52025 1.71895,-0.23346 0.82984,-0.10411 0.51469,1.02107 1.11996,1.12354 0.30097,0.49959 -0.25922,0.61488 -0.72173,0.78306 -0.32978,0.53304 -0.9893,0.60122 -1.5908,0.66983 -0.63365,-0.60125 -1.63714,0.18596 -2.33842,-0.36984 -0.76557,0.0938 -1.5858,0.16075 -2.36097,-0.0789 -0.71337,0.1186 -1.24726,-0.49627 -1.93768,-0.16529 -1.01308,0.38471 -1.99236,-0.009 -2.97415,-0.28594 -0.60484,-0.19877 -1.28232,0.004 -1.80454,-0.30785 -0.68707,0.0913 -1.20676,-0.42066 -1.83874,-0.45207 -0.74804,-0.4905 -1.75736,0.0471 -2.36388,-0.65662 -0.6036,-0.13098 -0.57437,0.52192 -1.15376,0.11654 -0.69251,0.19958 -0.90247,-0.62479 -1.59833,-0.65 -1.60918,0.39049 -3.31478,1.64338 -4.96402,0.74504 -0.62738,-0.16653 -1.32114,-0.56901 -1.85503,-0.081 -1.28024,0.0615 -2.5776,-0.052 -3.86703,-0.0777 -0.84904,0.39009 -1.93351,0.11654 -2.69031,0.73141 -0.6779,0.94586 -1.79324,0.29009 -2.73329,0.45249 -1.54781,0.33512 -3.10481,-0.0964 -4.66015,0.14296 -0.75052,-0.0368 -1.02101,-0.45578 -1.35537,0.35869 0.086,0.73221 -0.63907,1.69171 0.0907,2.29336 -0.0121,0.66447 0.84737,1.10043 0.81189,1.67768 0.055,0.75537 0.83026,1.36447 0.97344,2.10455 -0.11522,0.77809 0.18658,1.19462 0.47794,1.80537 -0.33643,0.68304 -1.56408,0.48181 -2.26745,0.75413 -0.54766,0.23305 -1.58787,0.0851 -1.80827,0.53181 -5.35807,1.10661 -10.73199,2.18057 -16.06502,3.37975 -0.005,2.08966 -0.0117,4.1789 -0.005,6.26857 0.88495,0.36115 -0.17572,0.46775 -0.21079,0.65991 -0.7138,0.17851 -0.86074,0.85785 -1.49813,0.90123 -0.25714,-1.02477 -0.77265,0.28554 -0.61194,0.68059 -0.54725,0.54668 -0.73801,0.93181 0,1.0442 -0.41159,-0.2785 -0.62531,0.87477 -0.7234,1.17644 0.45958,0.40703 0.49256,0.76694 0.67205,1.46322 0.0284,0.51694 -0.54641,1.11322 -0.3498,1.78098 -0.13483,0.9467 0.43204,-1.01569 0.98555,-0.0471 0.50841,-0.14546 -0.12566,-1.19258 0.70126,-0.84298 0.18366,0.96363 -0.31558,-1.14008 0.17949,-0.56076 -0.16405,-0.0546 0.86073,0.10906 0.68666,1.13844 0,0.60084 -0.47545,1.41984 0.56185,1.23925 0.11397,0.0516 -0.7305,-0.62479 -0.0638,-0.43595 0.52719,0.41446 0.20412,-0.85248 -0.008,-0.98181 0.51636,-0.20744 0.099,-1.54132 0.36985,-0.29877 -0.19912,0.74174 0.0601,1.14175 0.51091,0.80455 -0.0676,0.5529 0.34774,0.93926 0.54224,1.33058 0.10267,0.6504 0.89204,0.6971 0.76139,0.15247 0.58566,-0.45784 -0.0877,1.11074 0.4671,0.59503 0.16989,0.63142 -0.0113,1.16984 0.0972,1.75083 0.16447,-0.40372 -0.40949,0.67933 -0.45415,1.1248 -0.75931,-0.15166 -0.44331,0.58718 -0.9918,1.05536 0.23792,-0.2062 -0.57857,1.03718 -0.88495,0.57108 -0.3306,0.47107 -0.49006,1.17767 -0.55184,1.83097 -0.35231,0.74546 0.0593,0.96984 0.69918,1.03224 0.45376,0.78884 0.0689,0.96901 -0.24418,1.60907 -1.39378,0.91613 -3.1595,1.29504 -4.69853,2.00495 -1.95482,0.53059 -3.85619,1.2281 -5.88238,1.16489 -2.06331,-0.0996 -3.87703,0.98882 -5.79802,1.5756 -2.36347,2.06777 -4.58665,4.37024 -6.900865,6.52352 -2.012408,1.15868 -4.215153,2.08306 -6.304774,3.14462 -1.632556,0.58885 -2.927416,1.70951 -4.224348,2.81487 -0.850717,0.5533 -1.496462,1.57478 -2.491187,1.8161 -0.84362,0.76942 -2.025772,1.24754 -2.675702,2.18306 -0.67831,0.35372 -1.162111,0.93512 -1.547385,1.60785 -0.735509,0.60163 -0.02469,1.40536 -0.289278,2.10164 -1.686815,2.46363 -3.527238,4.84832 -5.194024,7.25906 -0.612775,-0.0776 0.09064,0.87934 -0.617367,1.01736 -0.241276,-0.71654 -1.177558,-0.014 -1.552825,-0.67191 -0.593988,0.0314 -0.875337,-0.40868 -1.187155,-0.80661 -0.436202,-0.56198 -0.714212,0.62563 -1.346193,0.3814 -0.776413,0.13472 -0.236262,-0.97314 0.03715,-1.25991 0.692514,-0.59792 -0.283426,-1.06983 -0.823578,-1.15907 -0.765559,-0.34794 -1.529437,-0.0176 -2.338414,-0.0311 -0.3882,0.51942 -1.036885,0.23718 -1.591639,0.34464 -0.839859,0.10541 -1.682223,0.57809 -2.454874,0.55867 -0.479618,0.30577 -1.059429,0.42106 -1.613349,0.17479 -0.668714,0.0735 -1.317388,-0.56075 -1.963981,-0.2719 -0.636161,0.0368 -0.99974,-0.004 -1.500644,0.29668 -0.861145,0.004 -1.690151,-0.12726 -2.556314,0.009 -0.634481,-0.48554 -1.06819,0.74463 -1.260201,0.19007 -0.871589,-0.33015 -1.811629,-0.0745 -2.522082,0.48596 -0.443307,0.48636 -0.789347,0.60536 -1.4397,0.51447 -0.461256,0.16569 -1.324904,-0.48555 -1.498553,0.0405 -0.906654,0.13305 -2.123439,-0.0955 -2.669851,0.83678 -0.356482,0.85495 -1.295689,0.82643 -2.061659,0.65867 -0.634906,0.0289 -0.894967,-0.72852 -1.557419,-0.47686 -0.574795,-0.40661 -1.288583,-0.47108 -1.971909,-0.29752 -0.46794,-0.49628 -1.039388,0.0102 -1.52945,-0.057 -0.876594,0.0277 -1.521096,-0.94546 -2.417718,-0.64587 -0.602354,-0.21075 -1.053591,0.27396 -1.57745,0.48802 -1.618776,0.31735 -2.375147,1.90247 -3.584846,2.819 -0.590663,0.0525 -1.000151,0.47727 -1.518594,0.44337 -1.208032,0.21985 -2.482423,0.75537 -3.701309,0.27358 -0.576885,-0.31076 -1.852946,-0.14134 -1.625449,0.71361 0.09598,-0.41529 -0.452492,1.33223 -0.939626,1.15207 -1.344114,0.51157 -2.846414,0.91982 -3.867441,2.03388 -0.453328,0.47892 -1.157106,0.79669 -1.662605,1.02852 -0.660361,0.32602 -1.461408,0.86074 -1.641318,1.58594 -1.070694,0.8161 -2.379738,1.31156 -3.409106,2.16321 -0.623628,0.30124 -1.125378,1.16198 -1.879248,0.919 -0.860724,0.55206 -1.533619,1.32313 -2.391429,1.86818 -1.6471568,1.08511 -2.8543531,2.66857 -4.3107463,3.9508 -1.7431663,0.71737 -3.3924141,1.67892 -5.1522742,2.34255 0.00559,8.12147 0.011127,16.24622 0.026357,24.36397 -0.044259,1.24834 0.1002062,2.68925 -0.08219,3.81528 -0.0997607,3.34791 0.013789,6.69832 -0.0935337,10.04665 5.404406,3.36486 10.7399272,6.85865 16.1276272,10.25822 6.258458,3.91818 12.51231,7.84585 18.660564,11.93345 1.885932,1.1475 3.649128,2.55947 5.560106,3.61732 2.734542,1.70703 5.431942,3.62355 8.10931,5.43222 2.613499,1.79008 5.21739,3.61404 7.847171,5.34956 4.679328,3.25949 9.431303,6.36484 14.104782,9.64005 7.050317,4.81939 13.97414,9.77723 20.9418,14.7111 -0.444981,-0.33595 1.518168,1.01323 1.593302,1.21447 0.94797,0.77394 2.061243,1.33056 3.028836,2.08594 5.995458,4.35246 12.086118,8.60285 18.148788,12.87473 3.68879,2.41074 7.24358,5.07021 10.91568,7.4727 3.0451,2.3562 6.34108,4.46941 9.4726,6.73014 3.34275,2.26943 6.57736,4.68635 9.89256,6.97189 6.91005,4.90038 13.80716,9.78881 20.68633,14.73051 1.35329,1.02274 2.93032,2.09998 4.18092,3.03141 4.13837,3.06651 8.3339,6.03839 12.45306,9.13632 6.37489,4.68221 12.82329,9.36939 19.22323,14.01812 2.69782,1.97066 5.34513,3.90039 7.99913,5.90988 0.96924,0.35909 0.64533,1.52397 0.90704,2.34918 9.12909,6.25412 18.22936,12.55242 27.36138,18.80693 1.20719,0.48556 1.25394,1.86199 1.40045,2.96983 0.30556,2.34008 -0.39029,4.62686 -0.75052,6.90369 -0.11022,1.11736 1.08239,1.54132 2.01031,1.31116 0.77016,-0.84172 2.36389,-0.55909 2.47325,0.66777 0.0196,1.20743 1.46475,1.04669 2.2925,1.27189 1.60041,0.64423 3.2843,1.12604 4.74695,2.06445 0.92376,1.20082 0.63491,2.85165 0.85196,4.26942 0.40908,1.1438 1.95188,1.48553 2.63229,2.44419 0.16239,0.8624 0.8741,1.00082 1.6192,0.80206 0.97885,-0.25288 1.15166,0.83967 1.52776,1.45537 0.56647,0.78348 0.91751,-0.70785 1.61378,-0.35372 0.48587,0.25209 0.86907,0.68885 1.35079,0.19463 0.67038,-0.39338 0.6253,1.07397 1.40713,1.05331 1.21889,0.0546 1.17923,-1.81857 2.28417,-2.09918 2.19897,0.40827 3.56981,2.49381 4.56828,4.31447 0.28635,0.73098 0.51093,2.27932 1.6121,1.9814 1.09281,-0.5591 1.32158,1.13758 2.36346,1.05536 0.73551,0.0674 1.29233,0.6186 2.09337,0.40455 1.03689,-0.0463 2.03912,0.0165 3.04596,0.17438 1.19341,0.98801 2.82054,0.78552 4.24939,1.12727 1.04313,0.033 1.97442,0.46238 2.6473,1.238 1.08155,0.32149 1.87341,1.13967 2.84434,1.70289 0.47878,0.64173 1.66594,0.2624 1.97192,0.82148 -0.41283,0.83347 0.20036,1.68472 -0.29429,2.49711 -0.40991,0.73141 -0.14651,1.41818 0.32142,1.98222 -0.36901,0.97437 -0.98512,2.30534 -0.0204,3.18718 0.86489,0.40537 -0.12565,1.00991 0.0671,1.60702 0.53347,0.79463 1.34495,1.88759 0.51052,2.7851 -0.79603,0.48306 -1.8901,1.41859 -1.43134,2.41777 -0.34732,0.74628 -0.92628,1.38429 -1.37376,2.0971 -0.90664,0.21529 -1.00725,1.19629 -0.52929,1.84627 -0.0317,0.69421 0.8624,1.00825 1.34411,1.45165 0.78809,0.54421 1.5428,1.14379 2.31003,1.73471 0.12188,0.81363 0.9872,1.06775 1.53402,1.53056 6.98811,-1.54007 13.99919,-3.00246 20.98521,-4.56362 12.98401,-2.98883 26.06444,-5.55247 39.09476,-8.33715 2.43027,-2.36653 4.7741,-4.81901 7.22898,-7.16114 5.64942,-5.66402 11.3385,-11.29088 17.15197,-16.79044 4.63258,-4.62311 9.28354,-9.21814 14.3398,-13.39168 2.94869,-2.33015 6.18917,-4.29088 9.27228,-6.44418 12.71768,-8.5669 25.37777,-17.22391 38.15181,-25.70321 8.79098,-5.94048 17.78772,-11.57599 26.59038,-17.49495 11.3836,-7.46032 22.80018,-14.88467 34.33195,-22.11687 0.75553,-0.50909 1.6889,-1.02355 2.25158,-1.50166 -3.08642,-6.58136 -6.17871,-13.16357 -9.29396,-19.73339 -0.48671,0.43346 -1.198,0.2657 -1.75693,0.61363 -0.76474,0.64711 -1.84584,0.53844 -2.63938,1.12109 -2.21152,-1.65578 -4.42305,-3.31157 -6.63456,-4.96735 -0.49382,-0.58512 -1.4543,-0.43057 -1.9093,-0.95867 -0.77682,-0.0625 -0.8482,-0.97067 -1.42216,-1.36158 -0.92835,-0.37974 -1.00015,-1.63717 -1.9669,-1.93469 -0.48088,-0.4124 -1.05903,-0.29008 -1.5879,-0.52315 -0.6086,-0.55164 -1.32031,-0.0789 -1.70768,0.46075 0.35647,0.57686 -0.2083,0.60166 -0.62321,0.90537 -0.13567,-0.55165 -1.06945,-0.81363 -0.93295,-1.48098 -0.42326,-0.34628 -1.10785,-0.15784 -1.60584,-0.12233 -0.38028,-0.0979 -0.71545,0.21613 -1.01476,-0.0761 -0.63866,-0.0323 -0.6733,1.06569 -1.13623,0.81075 -0.67331,0.38263 -1.40756,0.0761 -2.13096,-0.0203 -0.55684,0.26861 -1.15043,0.32149 -1.76862,0.31736 -0.46335,-0.41033 -1.37959,0.24836 -1.55616,-0.50701 -0.49591,-0.35745 -0.74176,-1.15661 -1.31573,-1.31571 -0.40907,-0.4847 -0.94547,-0.80496 -1.49606,-1.17644 -0.5393,-0.28265 -0.86489,-0.98017 -0.81773,-1.56157 -0.80563,-0.91033 -0.8482,-2.26899 -1.65384,-3.21485 -0.84069,-0.59793 -0.5226,-1.74339 -1.23264,-2.43596 -0.27968,-0.64256 -0.90081,-1.11322 -1.0995,-1.77479 0.11396,-3.43345 0.0327,-6.91567 -0.0255,-10.36896 -5.07754,-7.48551 -10.39888,-14.81192 -15.23517,-22.45487 0.0898,-0.56073 0.8695,-1.06404 1.25186,-1.60741 0.25213,-1.27439 1.01142,-2.38637 1.41007,-3.63637 2.82972,-1.21404 5.65986,-2.42726 8.49001,-3.6413 0.38652,-1.09545 0.77389,-2.19173 1.16045,-3.28718 0.0229,-1.41199 -0.44291,-2.86404 0.0455,-4.26857 -0.0572,-0.66365 0.70586,-1.61654 -0.0965,-1.98389 -0.32726,-0.55701 -0.61738,-1.07769 -1.00057,-1.63387 -0.50592,-1.15703 -0.48212,-2.46735 -0.85114,-3.66901 0.12064,-0.70991 -0.31055,-1.42106 -0.35564,-2.08595 -0.27716,-0.38842 -0.57395,-0.79377 -0.53513,-1.32105 0.004,-0.93429 -0.47838,-1.76777 -0.28345,-2.70454 0.089,0.45124 0.62907,-1.58843 -0.004,-1.56281 0.1035,-0.5566 0.18659,-1.14214 0.51051,-1.62355 0.13524,-0.24626 0.17951,-0.47685 0.20497,-1.20081 0.16696,-0.34132 0.28174,-0.8442 0.68082,-1.02727 0.60275,-0.0765 0.7597,-0.64381 0.58356,-1.16198 0.66287,-0.87769 -0.35816,-0.57191 -1.00976,-0.60826 -0.59316,-0.48719 0.46919,-0.5843 0.82065,-0.62232 0.44332,-0.28058 0.89748,-0.79917 1.03396,-1.4033 0.57689,-0.79546 0.53807,-1.75205 1.00851,-2.58387 -0.21664,-0.87066 0.1678,-1.70496 0.0338,-2.57024 -0.27258,-0.62562 0.58647,-0.87439 0.4458,-1.42686 -0.98512,-3.65701 -2.0675,-7.30782 -3.12693,-10.95202 0.45876,-4.10122 1.08281,-8.18054 1.61335,-12.27229 0.0481,-2.29129 -0.44915,-4.58301 -0.58899,-6.87764 -0.56018,-3.79957 -1.50982,-7.5413 -2.24366,-11.31442 -1.54948,-3.79049 -3.354,-7.49997 -5.02621,-11.24913 -0.62989,-1.8314 -1.90553,-3.29958 -3.10356,-4.78552 -1.10618,-0.95001 -1.04355,-2.44338 -1.3345,-3.74793 -0.24879,-0.8252 0.54389,-1.18429 1.18966,-1.10991 0.91417,-0.48884 1.83165,-0.92107 2.85393,-1.15578 -2.76334,-12.00449 -5.52378,-23.97965 -8.29214,-35.98126 -1.07571,-4.08304 -1.76697,-8.28468 -3.04053,-12.30202 -0.34396,-0.68967 -0.0626,-1.83966 -0.90665,-2.0686 -5.75044,-3.46279 -11.21914,-7.34748 -16.83057,-11.02102 -0.27133,-2.83883 -0.54266,-5.67766 -0.81357,-8.51649 -1.14707,-2.09835 -2.68403,-4.07438 -4.46059,-5.70371 -0.75387,-0.42478 -0.58316,-1.18801 -0.52178,-1.90908 -1.74775,-0.81612 -3.51014,-1.6033 -5.29964,-2.32768 0.52805,0.18802 -1.50398,0.22852 -1.70225,-0.33842 -1.02228,-1.91156 -1.34371,-4.05 -1.78409,-6.13884 -0.86825,-1.429736 -1.93895,-2.849163 -2.88817,-4.2723 -0.30431,-0.848338 -1.04816,-1.695033 -0.73592,-2.637169 -0.0192,-0.864876 0.009,-1.918176 -0.61487,-2.592562 -0.1703,-0.547098 -1.52694,-0.448337 -0.97261,-1.088003 0.53556,-0.516938 0.31685,-1.138017 0.0994,-1.755784 -0.74259,-0.785114 0.32894,-1.296682 0.17616,-2.074369 -0.43663,-0.7376 0.79186,-1.587603 -0.0759,-2.095452 -0.56394,-0.342968 -0.53722,-1.221064 0.27051,-1.090899 0.77932,-0.330995 0.56434,-0.361984 0.69207,-0.73058 0.81064,0.0219 0.62656,-0.96694 1.12414,-1.485948 0.36858,-1.225201 1.20176,-0.901224 2.10215,-0.385947 0.83025,0.379752 1.51861,-0.786358 2.2996,-1.060321 -0.19993,-1.35454 0.67164,-2.58181 0.98054,-3.891313 0.0347,0.175216 -0.004,-0.500411 0.0245,-0.676439 -0.13148,-0.427687 0.0166,-0.778917 0.498,-0.666944 0.35438,-0.404544 0.90288,-0.08386 1.32406,-0.383879 -0.0907,-0.392969 0.45708,-0.404546 0.50342,-0.639259 0.28302,-0.123133 0.71004,-0.05656 1.02687,-0.276856 0.63992,0.02114 0.67248,-0.983469 1.3558,-1.047511 0.46209,0.08386 0.5702,-0.204133 0.74551,-0.493809 0.20371,-0.09178 0.5268,0.02311 0.80395,0.01573 0.004,-0.291315 0.34981,-0.385113 0.47212,-0.504537 0.46418,0.102884 0.22792,-0.354544 0.55683,-0.431812 -0.19033,0.461565 0.38988,-0.101676 0.12023,-0.444216 -0.0894,-0.206619 0.39237,0.09178 0.20412,-0.312817 0.40615,0.132233 0.73131,-0.0044 1.04982,-0.04292 0.63824,0.02024 -0.55059,-0.336366 -0.0792,-0.390076 -0.055,-0.361981 0.18325,-0.36942 0.4191,-0.508685 0.009,-0.17024 0.31015,-0.09342 0.5606,-0.112393 -0.37944,-0.28512 -0.10236,-0.699173 0.30598,-0.773548 0.22915,0 0.51093,-0.260329 0.37401,-0.504548 -0.38612,0.193393 -1.28191,-0.230574 -0.86324,-0.757022 0.67957,0.110744 0.80062,-0.542148 1.19383,-0.928097 0,-0.517765 0.43872,-0.04918 0.66997,-0.26198 -0.21287,-0.09672 -0.68624,-0.350825 -0.7426,-0.748756 -0.41031,-0.384707 0.0894,-1.031809 -0.187,-1.369 0.0693,-0.539673 -0.29261,-0.872727 -0.21664,-1.388015 -0.38863,-0.273554 -0.20997,-0.679752 -0.34939,-1.04586 -0.21706,-0.369839 -0.29929,-0.742143 0.25421,-0.845041 0.34939,-0.242559 0.68209,-0.528096 1.08114,-0.428512 0.13816,-0.373141 0.11813,-1.14132 0.068,-1.626435 0.30473,-0.815287 0.64534,-1.664463 0.98721,-2.390485 0.39697,-0.492147 1.19467,-0.711157 1.39044,-1.412807 0.18033,-0.944625 0.7902,-1.772311 1.50525,-2.441313 -0.16197,-0.100018 -0.91334,0.244626 -1.20218,-0.145461 -0.4571,-0.02971 -0.67165,-0.152887 -1.0323,-0.472306 -0.40992,-0.410334 -1.06444,-0.311157 -1.42092,-0.72851 0.0907,-0.38058 -0.63408,-0.751651 -0.20997,-0.996277 0.13733,-0.45041 -0.13733,-1.046699 0.0176,-1.509091 0.13608,-0.270243 0.54766,-0.919415 -0.0371,-0.86652 0.47463,-0.15455 0.3832,-0.852897 0.81483,-1.101649 0,-0.488022 0.86073,-0.15248 0.85655,-0.533479 0.0792,-0.478501 -0.53222,-0.739248 -0.57562,-1.271065 0.16862,-0.615698 -0.13859,-1.239254 -0.18618,-1.867759 -0.20496,-0.583886 0.34522,-1.11611 0.058,-1.678923 0.18617,-0.440495 -0.17824,-0.659085 -0.48757,-0.833884 -0.71754,0.05699 -0.84611,-0.631807 -1.34494,-1.060317 -0.52471,-0.112813 -0.34687,-0.674791 -0.50633,-1.078512 0.22707,-0.442563 0.1006,-0.862811 0.28385,-1.310326 0.13608,-0.502073 -0.18742,-1.351241 -0.005,-1.916111 0.49589,-0.338843 -0.38279,-0.1438 -0.17449,-0.32479 0.53346,-0.291327 -0.51177,-0.307437 -0.0438,-0.623974 -0.0501,-0.36942 0.18492,-0.919822 0.63824,-0.92354 0.13692,-0.430999 0.18284,-1.267764 0.21539,-1.82644 -0.26965,-0.577691 0.38821,-0.96198 0.42745,-1.487193 0.0229,-0.516113 0.99598,-0.597509 0.52763,-1.154128 0.26548,-0.728917 -0.79186,-0.853304 -0.71756,-1.514867 0.36399,-0.279749 0.67121,-0.578098 0.75846,-1.071895 0.30221,-0.31777 0.60484,-1.185533 -0.0195,-1.354958 0.10018,-0.327686 0.43787,-0.777268 0.84904,-0.89008 0.50675,-0.09045 0.29304,-0.330159 0.0167,-0.662807 -0.1411,0.399583 -0.12941,-0.856605 0.29051,-1.097511 0.51888,-0.327277 0.0264,-0.938012 0.45877,-1.243392 0.35772,-0.571484 -0.58439,-0.33016 -0.86032,-0.596683 -0.27759,-0.686771 -0.56311,-0.107068 -1.0302,-0.04093 0.13398,0.176447 -0.33562,0.22603 -0.43664,-0.126864 -0.0936,-0.277262 -0.78351,-0.300404 -1.11493,-0.08308 -0.36693,-0.32644 -0.96135,-0.114869 -1.41674,-0.271896 -0.1123,-0.553305 -0.83111,-0.05579 -0.93462,-0.52025 -0.23126,-0.169832 -0.0267,-0.524377 -0.2396,-0.66033 -0.26965,-0.209909 0.25795,-0.117764 0.3644,-0.299172 0.0355,-0.338005 0.33603,-0.270243 0.55101,-0.122308 0.17324,-0.105747 0.57729,-0.12232 0.69042,-0.28017 0.26966,-0.120238 0.55642,-0.211151 0.74969,-0.454953 0.25214,0 0.56436,-0.04467 0.85364,-0.08803 0.21624,-0.22396 0.51844,-0.256191 0.71338,-0.478095 0.12105,-0.185944 0.0868,-0.57231 0.45456,-0.511974 0.40325,-0.141324 0.69461,-0.521903 1.10953,-0.554552 0.39406,0.258678 0.30431,-0.506606 0.59524,-0.529748 0.29471,-0.229749 0.56938,-0.03962 0.93671,-0.0789 0.11856,-0.223554 0.25715,-0.68389 0.3519,-1.030576 -0.45959,-0.180992 0.20662,-0.143392 0.2592,-0.337191 0.22459,-0.24215 0.34607,-0.437193 0.41159,-0.708681 -0.25086,-0.08549 -0.14776,-0.502469 -0.41032,-0.632633 -0.37987,-0.261572 0.15612,-0.603309 -0.17406,-0.758264 -0.25839,-0.108278 -0.76724,0.178504 -0.80689,-0.3004176 0.25756,-0.05205 0.66579,-0.3363648 1.01727,-0.3710706 0.32308,-0.3396669 0.84611,-0.1107432 1.27982,-0.2429767 0.15444,0.1297573 0.42952,0.2747994 0.68332,0.099142 0.10932,0.023994 0.31432,0.090445 0.43621,0.074382 0.25504,-0.076034 0.4337,-0.6309824 0.79143,-0.6471033 0.18702,0.3252069 0.4262,0.038405 0.58273,-0.1004627 0.4312,-0.1289309 1.00016,-0.2896644 1.20344,-0.7223136 0.31432,-0.3305776 -0.17866,-0.3698283 -0.30012,-0.6272633 -0.21206,0.1024501 -0.49716,-0.066902 -0.75096,-0.1235625 -0.34187,0.1239697 -0.0276,-0.2243793 -0.0851,-0.4119732 0.0262,-0.424385 -0.0785,-1.1218965 0.54807,-1.1826492 0.0367,-0.2103271 -0.25086,-0.4392517 -0.29345,-0.7830554 z"
       style="fill:#000000;stroke-width:0.0415318;stroke-dasharray:none;stroke:#000000;stroke-opacity:1" />
  </g>
</svg>